<svg id="visual" viewBox="0 0 900 600" width="900" height="600" xmlns="http://www.w3.org/2000/svg" xmlns:xlink="http://www.w3.org/1999/xlink" version="1.1"><path d="M0 55L16.7 62C33.3 69 66.7 83 100 81C133.3 79 166.7 61 200 53C233.3 45 266.7 47 300 51C333.3 55 366.7 61 400 64C433.3 67 466.7 67 500 65C533.3 63 566.7 59 600 58C633.3 57 666.7 59 700 59C733.3 59 766.7 57 800 54C833.3 51 866.7 47 883.3 45L900 43L900 0L883.3 0C866.7 0 833.3 0 800 0C766.7 0 733.3 0 700 0C666.7 0 633.3 0 600 0C566.7 0 533.3 0 500 0C466.7 0 433.3 0 400 0C366.7 0 333.3 0 300 0C266.7 0 233.3 0 200 0C166.7 0 133.3 0 100 0C66.7 0 33.3 0 16.7 0L0 0Z" fill="#3a016b"></path><path d="M0 253L16.7 251C33.3 249 66.7 245 100 226C133.3 207 166.7 173 200 173C233.3 173 266.7 207 300 220C333.3 233 366.7 225 400 236C433.3 247 466.7 277 500 272C533.3 267 566.7 227 600 202C633.3 177 666.7 167 700 174C733.3 181 766.7 205 800 221C833.3 237 866.7 245 883.3 249L900 253L900 41L883.3 43C866.7 45 833.3 49 800 52C766.7 55 733.3 57 700 57C666.7 57 633.3 55 600 56C566.7 57 533.3 61 500 63C466.7 65 433.3 65 400 62C366.7 59 333.3 53 300 49C266.7 45 233.3 43 200 51C166.7 59 133.3 77 100 79C66.7 81 33.3 67 16.7 60L0 53Z" fill="#300b52"></path><path d="M0 313L16.7 319C33.3 325 66.7 337 100 327C133.3 317 166.7 285 200 280C233.3 275 266.7 297 300 307C333.3 317 366.7 315 400 327C433.3 339 466.7 365 500 356C533.3 347 566.7 303 600 284C633.3 265 666.7 271 700 284C733.3 297 766.7 317 800 330C833.3 343 866.7 349 883.3 352L900 355L900 251L883.3 247C866.7 243 833.3 235 800 219C766.7 203 733.3 179 700 172C666.7 165 633.3 175 600 200C566.7 225 533.3 265 500 270C466.7 275 433.3 245 400 234C366.7 223 333.3 231 300 218C266.7 205 233.3 171 200 171C166.7 171 133.3 205 100 224C66.7 243 33.3 247 16.7 249L0 251Z" fill="#260f3a"></path><path d="M0 529L16.7 520C33.3 511 66.7 493 100 481C133.3 469 166.7 463 200 464C233.3 465 266.7 473 300 486C333.3 499 366.7 517 400 524C433.3 531 466.7 527 500 515C533.3 503 566.7 483 600 480C633.3 477 666.7 491 700 493C733.3 495 766.7 485 800 477C833.3 469 866.7 463 883.3 460L900 457L900 353L883.3 350C866.7 347 833.3 341 800 328C766.7 315 733.3 295 700 282C666.7 269 633.3 263 600 282C566.7 301 533.3 345 500 354C466.7 363 433.3 337 400 325C366.7 313 333.3 315 300 305C266.7 295 233.3 273 200 278C166.7 283 133.3 315 100 325C66.7 335 33.3 323 16.7 317L0 311Z" fill="#1b1024"></path><path d="M0 601L16.7 601C33.3 601 66.7 601 100 601C133.3 601 166.7 601 200 601C233.3 601 266.7 601 300 601C333.3 601 366.7 601 400 601C433.3 601 466.7 601 500 601C533.3 601 566.7 601 600 601C633.3 601 666.7 601 700 601C733.3 601 766.7 601 800 601C833.3 601 866.7 601 883.3 601L900 601L900 455L883.3 458C866.7 461 833.3 467 800 475C766.7 483 733.3 493 700 491C666.7 489 633.3 475 600 478C566.7 481 533.3 501 500 513C466.7 525 433.3 529 400 522C366.7 515 333.3 497 300 484C266.7 471 233.3 463 200 462C166.7 461 133.3 467 100 479C66.7 491 33.3 509 16.7 518L0 527Z" fill="#0d0d0d"></path></svg>